# xmcd
#
# Track frame offsets:
#	150
#	16513
#	29543
#	42892
#	53481
#	63296
#	76324
#	86447
#	97222
#	110383
#	125388
#	139899
#	164743
#
# Disc length: 2465 seconds
#
# Revision: 0
# Processed by: cddbd v1.5.1PL2 Copyright (c) Steve Scherf et al.
# Submitted via: MusicManager 7.3.0.0 
#
DISCID=a2099f0d
DTITLE=Arctic Monkeys - Whatever pepole say I am, that's what I'm not
DYEAR=2005
DGENRE=rock
TTITLE0=The view from the afternoon
TTITLE1=I bet you look good on the dancefloor
TTITLE2=Fake tales of San Francisco
TTITLE3=Dancing shoes
TTITLE4=You probably couldn't see for the lights but you were staring straight at me
TTITLE5=Still take you home
TTITLE6=Riot van
TTITLE7=Red light inicates doors are secured
TTITLE8=Mardy bum
TTITLE9=Perhaps vampires is a bit strong but...
TTITLE10=When the sun goes down
TTITLE11=From the ritz to the rubble
TTITLE12=A certain romance
EXTD=
EXTT0=
EXTT1=
EXTT2=
EXTT3=
EXTT4=
EXTT5=
EXTT6=
EXTT7=
EXTT8=
EXTT9=
EXTT10=
EXTT11=
EXTT12=
PLAYORDER=
